<?xml version="1.0" encoding="UTF-8"?>
<svg width="396px" height="277px" viewBox="0 0 396 277" version="1.1" xmlns="http://www.w3.org/2000/svg" xmlns:xlink="http://www.w3.org/1999/xlink">
    <!-- Generator: Sketch 51 (57462) - http://www.bohemiancoding.com/sketch -->
    <title>undraw_social_networking_nqk4</title>
    <desc>Created with Sketch.</desc>
    <defs>
        <linearGradient x1="0.25781251%" y1="49.7500002%" x2="101.257813%" y2="49.7500002%" id="linearGradient-1">
            <stop stop-color="#3023AE" offset="0%"></stop>
            <stop stop-color="#53A0FD" offset="47.5247532%"></stop>
            <stop stop-color="#B4EC51" offset="100%"></stop>
        </linearGradient>
        <linearGradient x1="49.9970071%" y1="99.9999882%" x2="49.9970071%" y2="-0.0123733516%" id="linearGradient-2">
            <stop stop-color="#808080" stop-opacity="0.25" offset="0%"></stop>
            <stop stop-color="#808080" stop-opacity="0.12" offset="54%"></stop>
            <stop stop-color="#808080" stop-opacity="0.1" offset="100%"></stop>
        </linearGradient>
    </defs>
    <g id="Page-1" stroke="none" stroke-width="1" fill="none" fill-rule="evenodd">
        <g id="Desktop-HD-Copy" transform="translate(-974.000000, -808.000000)">
            <rect fill="#FFFFFF" x="0" y="0" width="1440" height="2595"></rect>
            <g id="Group-11" transform="translate(77.000000, 808.000000)">
                <g id="undraw_social_networking_nqk4" transform="translate(897.000000, 0.000000)">
                    <path d="M372.630274,161.507709 C358.88364,180.441488 363.420205,207.467588 371.366216,228.998945 C374.027761,236.20661 377.050967,243.83017 375.671036,251.67225 C373.985625,261.258974 366.064193,268.441967 357.830258,272.354196 C342.819566,279.484321 325.087638,278.345898 311.66053,269.361869 C300.073329,261.607902 291.916642,248.722218 280.104719,241.338327 C260.336252,228.984847 234.672358,234.504262 212.670721,243.935906 C197.105248,250.607842 180.054507,259.200648 164.885807,253.039768 C154.211537,248.704596 147.023962,237.66929 143.242321,225.872687 C141.416459,220.177045 140.138355,213.995019 136.500676,209.536488 C134.337732,206.886041 131.479556,205.039187 128.54062,203.495442 C101.718006,189.39732 67.2162376,198.208646 41.2117498,182.478666 C23.6553849,171.855731 12.7283033,151.240752 8.18822733,129.568413 C3.64815135,107.896075 4.77175871,85.0183471 6.5800643,62.5318421 C7.86519022,46.5516205 9.89821728,29.4752699 19.4699475,16.9173675 C29.5929475,3.63693634 46.5594186,-1.64281045 61.7316292,0.440187119 C76.9038398,2.52318468 90.5030001,10.9926316 102.406216,21.0727891 C117.283479,33.6729858 130.980955,49.4875545 149.495898,54.2668179 C162.104879,57.5234842 175.500386,55.2184412 188.607968,54.1998519 C210.518311,52.5010281 232.351407,54.4571426 254.051074,56.6670232 C274.823765,58.7817416 295.740418,61.1431771 315.414081,68.0759287 C329.336278,72.9820752 340.372209,82.2551152 353.479791,88.5922211 C362.022718,92.7229709 371.422396,93.6816433 379.463211,99.0177825 C389.386069,105.591032 398.35386,117.236081 395.443015,131.210845 C392.693688,144.491276 379.926699,151.459273 372.630274,161.507709 Z" id="Shape" fill="url(#linearGradient-1)" fill-rule="nonzero" opacity="0.1"></path>
                    <rect id="Rectangle-path" fill="#474059" fill-rule="nonzero" x="134" y="56" width="72" height="49" rx="0.961"></rect>
                    <rect id="Rectangle-path" fill="#FFFFFF" fill-rule="nonzero" x="136" y="62" width="69" height="40"></rect>
                    <ellipse id="Oval" fill="#FFFFFF" fill-rule="nonzero" cx="169.346" cy="59.374" rx="1" ry="1"></ellipse>
                    <rect id="Rectangle-path" fill="#474059" fill-rule="nonzero" x="164" y="103" width="13" height="13"></rect>
                    <path d="M162.142857,115 L177.857143,115 C179.04061,115 180,115.895431 180,117 L160,117 C160,115.895431 160.95939,115 162.142857,115 Z" id="Shape" fill="#474059" fill-rule="nonzero"></path>
                    <rect id="Rectangle-path" fill="#C0BCCF" fill-rule="nonzero" x="82" y="127" width="52" height="18"></rect>
                    <rect id="Rectangle-path" fill="#C0BCCF" fill-rule="nonzero" x="294" y="118" width="11" height="98"></rect>
                    <rect id="Rectangle-path" fill="#000000" fill-rule="nonzero" opacity="0.1" x="82" y="127" width="52" height="1"></rect>
                    <rect id="Rectangle-path" fill="#000000" fill-rule="nonzero" opacity="0.1" x="294" y="118" width="11" height="10"></rect>
                    <rect id="Rectangle-path" fill="#C0BCCF" fill-rule="nonzero" x="82" y="144" width="52" height="18"></rect>
                    <circle id="Oval" fill="#4285F4" fill-rule="nonzero" cx="108" cy="153" r="3"></circle>
                    <circle id="Oval" fill="#4285F4" fill-rule="nonzero" cx="108" cy="135" r="3"></circle>
                    <rect id="Rectangle-path" fill="#C0BCCF" fill-rule="nonzero" x="82" y="162" width="52" height="18"></rect>
                    <circle id="Oval" fill="#4285F4" fill-rule="nonzero" cx="108" cy="170" r="3"></circle>
                    <rect id="Rectangle-path" fill="#C0BCCF" fill-rule="nonzero" x="82" y="180" width="52" height="18"></rect>
                    <circle id="Oval" fill="#4285F4" fill-rule="nonzero" cx="108" cy="188" r="3"></circle>
                    <rect id="Rectangle-path" fill="#C0BCCF" fill-rule="nonzero" x="82" y="198" width="52" height="18"></rect>
                    <circle id="Oval" fill="#4285F4" fill-rule="nonzero" cx="108" cy="206" r="3"></circle>
                    <rect id="Rectangle-path" fill="#000000" fill-rule="nonzero" opacity="0.1" x="82" y="161" width="52" height="1"></rect>
                    <rect id="Rectangle-path" fill="#000000" fill-rule="nonzero" opacity="0.1" x="82" y="143" width="52" height="1"></rect>
                    <rect id="Rectangle-path" fill="#000000" fill-rule="nonzero" opacity="0.1" x="82" y="179" width="52" height="1"></rect>
                    <rect id="Rectangle-path" fill="#000000" fill-rule="nonzero" opacity="0.1" x="82" y="197" width="52" height="1"></rect>
                    <path d="M54,203 C54,203 52.8284364,168.461933 34.0514669,148.945946 C26.170039,140.75658 20.993858,130.355591 19.6234836,119.099629 C18.9828789,113.757734 18.8355215,108.368659 19.1832597,103" id="Shape" stroke="#535461" stroke-width="0.5"></path>
                    <path d="M7.38529695,90.5067567 C8.69584661,94.2963738 19.6508833,103 19.6508833,103 C19.6508833,103 23.0069041,89.7398104 21.6963544,85.9536636 C20.3857227,82.1654666 16.1196065,80.1129939 12.1677172,81.3693375 C8.2158278,82.6256811 6.07466535,86.7150893 7.38529695,90.5032864 L7.38529695,90.5067567 Z" id="Shape" fill="#4285F4" fill-rule="nonzero"></path>
                    <path d="M2.81287288,115.88918 C6.03545921,118.393233 20,120 20,120 C20,120 15.3451531,107.093694 12.1225667,104.593119 C8.91005429,102.090363 4.2169431,102.590967 1.64020952,105.711248 C-0.936524074,108.83153 -0.421123478,113.389902 2.79138897,115.892658 L2.81287288,115.88918 Z" id="Shape" fill="#4285F4" fill-rule="nonzero"></path>
                    <path d="M15.2734616,152.954529 C19.2883953,153.560989 32,147.90069 32,147.90069 C32,147.90069 21.4334565,138.691875 17.4220509,138.081804 C13.4081524,137.474727 9.67326658,140.311967 9.07995003,144.418957 C8.48663348,148.525946 11.259563,152.347452 15.2734616,152.954529 Z" id="Shape" fill="#4285F4" fill-rule="nonzero"></path>
                    <path d="M30.9812066,177.705568 C34.7697078,179.001755 48,175.59836 48,175.59836 C48,175.59836 39.2618374,164.674909 35.4733362,163.378722 C31.6858908,162.078969 27.6068587,164.232484 26.3625628,168.188734 C25.1182669,172.144983 27.1798967,176.405815 30.967342,177.705568 L30.9812066,177.705568 Z" id="Shape" fill="#4285F4" fill-rule="nonzero"></path>
                    <path d="M35.1686226,115.543407 C33.2904778,119.077445 21.3142099,126 21.3142099,126 C21.3142099,126 20.2248152,112.421674 22.10296,108.884172 C23.3173246,106.597894 25.6845945,105.119907 28.3130419,105.006956 C30.9414893,104.894004 33.4317905,106.163247 34.8458732,108.336573 C36.2599559,110.5099 36.3829873,113.257129 35.1686226,115.543407 Z" id="Shape" fill="#4285F4" fill-rule="nonzero"></path>
                    <path d="M51.9174258,145.833538 C49.1318763,148.777689 36,152 36,152 C36,152 39.0153917,138.157068 41.7975107,135.212917 C44.5816278,132.270138 49.1040208,132.261242 51.8985582,135.193048 C54.6930956,138.124854 54.7015429,142.887146 51.9174258,145.829925 L51.9174258,145.833538 Z" id="Shape" fill="#4285F4" fill-rule="nonzero"></path>
                    <path d="M66.4901956,176.499218 C64.0970778,179.738267 51,185 51,185 C51,185 51.788066,171.475245 54.1847987,168.23275 C55.6946556,166.043934 58.3360614,164.813555 61.0754566,165.023049 C63.8148518,165.232544 66.2166765,166.848603 67.341117,169.238877 C68.4655576,171.62915 68.1338297,174.413588 66.4757356,176.502664 L66.4901956,176.499218 Z" id="Shape" fill="#4285F4" fill-rule="nonzero"></path>
                    <path d="M49,188 C49,188 59.5524519,172.779694 57.7022553,158.459213 C56.8869371,152.457607 58.057016,146.3557 61.0368301,141.06956 C62.4698914,138.567626 64.1312317,136.201206 66,134" id="Shape" stroke="#535461" stroke-width="0.5"></path>
                    <path d="M65.1555998,124.71311 C64.467125,126.781522 66.2864108,134 66.2864108,134 C66.2864108,134 72.1116925,129.227279 72.8001673,127.162361 C73.489711,125.094742 72.337402,122.871104 70.226413,122.195727 C68.115424,121.52035 65.8451436,122.648985 65.1555998,124.716604 L65.1555998,124.71311 Z" id="Shape" fill="#4285F4" fill-rule="nonzero"></path>
                    <path d="M55.1339407,133.889905 C55.7009485,135.961812 61.2355151,141 61.2355151,141 C61.2355151,141 63.4750176,133.976235 62.9080098,131.897421 C62.5404492,130.552686 61.4599447,129.499982 60.0735117,129.135853 C58.6870787,128.771724 57.2053495,129.151489 56.1864771,130.132095 C55.1676047,131.112701 54.7663801,132.54517 55.1339407,133.889905 Z" id="Shape" fill="#4285F4" fill-rule="nonzero"></path>
                    <path d="M49.1683379,154.78151 C50.7163359,156.327371 58,158 58,158 C58,158 56.3010634,150.700295 54.7495552,149.154434 C53.1986515,147.608339 50.6919975,147.616222 49.150787,149.172041 C47.6095764,150.727859 47.6174342,153.242457 49.1683379,154.788552 L49.1683379,154.78151 Z" id="Shape" fill="#4285F4" fill-rule="nonzero"></path>
                    <path d="M47.7402621,170.304628 C49.0221904,172.099917 56,175 56,175 C56,175 55.5490169,167.475365 54.2670885,165.680076 C52.9864316,163.88284 50.4871742,163.461134 48.6848409,164.738168 C46.8825076,166.015203 46.4596052,168.507392 47.7402621,170.304628 Z" id="Shape" fill="#4285F4" fill-rule="nonzero"></path>
                    <path d="M69.705173,144.516167 C67.6778218,145.479983 60,144.706117 60,144.706117 C60,144.706117 64.0837163,138.353373 66.1146942,137.403628 C67.4266022,136.780928 68.9813717,136.884357 70.1933358,137.674954 C71.4052999,138.46555 72.0903326,139.823204 71.9903886,141.2365 C71.8904446,142.649796 71.0207079,143.904021 69.7087997,144.52672 L69.705173,144.516167 Z" id="Shape" fill="#4285F4" fill-rule="nonzero"></path>
                    <path d="M66.7279607,163.974326 C64.6327059,164.305703 58,161.319747 58,161.319747 C58,161.319747 63.493241,156.381162 65.5884958,156.046221 C67.6821225,155.712663 69.6374659,157.220217 69.9558775,159.413439 C70.2742891,161.60666 68.8351929,163.65502 66.7415662,163.988579 L66.7279607,163.974326 Z" id="Shape" fill="#4285F4" fill-rule="nonzero"></path>
                    <path d="M63.299842,181.831427 C61.2335989,182.545382 54,180.760495 54,180.760495 C54,180.760495 58.7478141,174.909637 60.8140572,174.206391 C62.8801068,173.505512 65.1114329,174.647456 65.7978635,176.756994 C66.484294,178.866533 65.3658917,181.144827 63.299842,181.845706 L63.299842,181.831427 Z" id="Shape" fill="#4285F4" fill-rule="nonzero"></path>
                    <path d="M65.1555998,124.71311 C64.467125,126.781522 66.2864108,134 66.2864108,134 C66.2864108,134 72.1116925,129.227279 72.8001673,127.162361 C73.489711,125.094742 72.337402,122.871104 70.226413,122.195727 C68.115424,121.52035 65.8451436,122.648985 65.1555998,124.716604 L65.1555998,124.71311 Z" id="Shape" fill="#FFFFFF" fill-rule="nonzero" opacity="0.5"></path>
                    <path d="M55.1339407,133.889905 C55.7009485,135.961812 61.2355151,141 61.2355151,141 C61.2355151,141 63.4750176,133.976235 62.9080098,131.897421 C62.5404492,130.552686 61.4599447,129.499982 60.0735117,129.135853 C58.6870787,128.771724 57.2053495,129.151489 56.1864771,130.132095 C55.1676047,131.112701 54.7663801,132.54517 55.1339407,133.889905 Z" id="Shape" fill="#FFFFFF" fill-rule="nonzero" opacity="0.5"></path>
                    <path d="M49.1683379,154.78151 C50.7163359,156.327371 58,158 58,158 C58,158 56.3010634,150.700295 54.7495552,149.154434 C53.1986515,147.608339 50.6919975,147.616222 49.150787,149.172041 C47.6095764,150.727859 47.6174342,153.242457 49.1683379,154.788552 L49.1683379,154.78151 Z" id="Shape" fill="#FFFFFF" fill-rule="nonzero" opacity="0.5"></path>
                    <path d="M47.7402621,170.304628 C49.0221904,172.099917 56,175 56,175 C56,175 55.5490169,167.475365 54.2670885,165.680076 C52.9864316,163.88284 50.4871742,163.461134 48.6848409,164.738168 C46.8825076,166.015203 46.4596052,168.507392 47.7402621,170.304628 Z" id="Shape" fill="#FFFFFF" fill-rule="nonzero" opacity="0.5"></path>
                    <path d="M69.705173,144.516167 C67.6778218,145.479983 60,144.706117 60,144.706117 C60,144.706117 64.0837163,138.353373 66.1146942,137.403628 C67.4266022,136.780928 68.9813717,136.884357 70.1933358,137.674954 C71.4052999,138.46555 72.0903326,139.823204 71.9903886,141.2365 C71.8904446,142.649796 71.0207079,143.904021 69.7087997,144.52672 L69.705173,144.516167 Z" id="Shape" fill="#FFFFFF" fill-rule="nonzero" opacity="0.5"></path>
                    <path d="M66.7279607,163.974326 C64.6327059,164.305703 58,161.319747 58,161.319747 C58,161.319747 63.493241,156.381162 65.5884958,156.046221 C67.6821225,155.712663 69.6374659,157.220217 69.9558775,159.413439 C70.2742891,161.60666 68.8351929,163.65502 66.7415662,163.988579 L66.7279607,163.974326 Z" id="Shape" fill="#FFFFFF" fill-rule="nonzero" opacity="0.5"></path>
                    <path d="M63.299842,181.831427 C61.2335989,182.545382 54,180.760495 54,180.760495 C54,180.760495 58.7478141,174.909637 60.8140572,174.206391 C62.8801068,173.505512 65.1114329,174.647456 65.7978635,176.756994 C66.484294,178.866533 65.3658917,181.144827 63.299842,181.845706 L63.299842,181.831427 Z" id="Shape" fill="#FFFFFF" fill-rule="nonzero" opacity="0.5"></path>
                    <polygon id="Shape" fill="#474059" fill-rule="nonzero" points="69.4976563 230 39.4988281 230 32 184 77 184"></polygon>
                    <polygon id="Shape" fill="#000000" fill-rule="nonzero" opacity="0.1" points="71.2544647 184 64.2465994 226.984708 39 226.984708 39.4922735 230 69.496345 230 77 184"></polygon>
                    <rect id="Rectangle-path" fill="#C0BCCF" fill-rule="nonzero" x="81" y="116" width="226" height="11"></rect>
                    <rect id="Rectangle-path" fill="#E8EAF1" fill-rule="nonzero" x="176" y="67" width="25" height="1"></rect>
                    <rect id="Rectangle-path" fill="#E8EAF1" fill-rule="nonzero" x="176" y="70" width="25" height="1"></rect>
                    <rect id="Rectangle-path" fill="#E8EAF1" fill-rule="nonzero" x="176" y="72" width="25" height="1"></rect>
                    <rect id="Rectangle-path" fill="#E8EAF1" fill-rule="nonzero" x="176" y="75" width="25" height="1"></rect>
                    <rect id="Rectangle-path" fill="#E8EAF1" fill-rule="nonzero" x="176" y="78" width="25" height="1"></rect>
                    <rect id="Rectangle-path" fill="#E8EAF1" fill-rule="nonzero" x="176" y="81" width="25" height="1"></rect>
                    <rect id="Rectangle-path" fill="#E8EAF1" fill-rule="nonzero" x="176" y="84" width="25" height="1"></rect>
                    <rect id="Rectangle-path" fill="#E8EAF1" fill-rule="nonzero" x="176" y="87" width="25" height="1"></rect>
                    <rect id="Rectangle-path" fill="#E8EAF1" fill-rule="nonzero" x="176" y="89" width="25" height="1"></rect>
                    <rect id="Rectangle-path" fill="#E8EAF1" fill-rule="nonzero" x="176" y="92" width="25" height="1"></rect>
                    <rect id="Rectangle-path" fill="#E8EAF1" fill-rule="nonzero" x="176" y="95" width="25" height="1"></rect>
                    <path d="M265.945654,150.199913 C268.014615,145.342523 268.5365,139.963851 267.440052,134.798279 C266.159592,128.629149 265.323706,122.375762 264.938864,116.086507 C264.538955,110.060086 263.66196,106.15609 262.704282,103.626048 C262.704282,103.626048 263.07262,95.4244937 257.526508,91.1480192 C251.980395,86.8715447 239.035959,80.0966533 239.035959,80.0966533 L240.330402,74.8011339 L240.277783,74.8011339 C240.66759,74.6767697 241.040971,74.5056895 241.389812,74.2916114 C241.759042,74.0604488 242.09535,73.7803058 242.389585,73.4588058 C244.578563,71.5401903 244.610135,68.0192145 245.648496,65.2150842 C246.448315,63.0575202 247.946221,61.2091836 249.019662,59.164066 C250.973606,55.4392813 251.429643,50.8676351 249.612511,47.0795994 C247.795378,43.2915636 243.49109,40.568254 239.193818,41.0566928 C237.80544,41.2674812 236.445145,41.6340659 235.138596,42.1495305 C232.02702,43.2458823 229.571436,40.1430663 226.45986,41.242932 C224.89881,41.7946218 219.072059,42.3919929 217.809187,43.9978671 C217.52,44.1868329 217.308326,44.4737021 217.212831,44.8060751 C216.883081,46.366268 219.735067,49.4901676 221.850377,51.9850705 C220.169451,54.0299472 219.249428,56.5959898 219.247458,59.2448868 C219.247458,59.3046239 219.247458,59.364361 219.247458,59.4240981 C219.247458,59.4838352 219.247458,59.5435723 219.247458,59.6033095 C219.254641,62.7069705 220.513381,65.6760631 222.737895,67.8364893 C222.558989,69.40371 222.292382,71.1677118 221.910013,72.973881 L221.65393,72.973881 C221.65393,72.973881 220.173564,79.3903497 215.367635,79.3903497 C214.083715,79.3903497 212.329726,79.3130429 210.456466,79.2041105 C204.795232,78.9174137 199.125674,79.5716565 193.67781,81.1402958 C191.80455,81.663874 189.74186,81.7095553 188.015935,80.4621038 C183.890553,77.4787621 179.449454,69.8816069 178.842574,68.8239086 C179.305627,65.7421763 179.242483,60.0987761 172.854456,59.0727033 C165.364924,57.8709332 165.775358,66.5644401 170.083154,72.095394 C169.976557,72.3709641 169.905816,72.6591333 169.872675,72.9527973 C169.504338,77.5876945 173.941929,86.1441575 175.05045,87.2123976 C176.158971,88.2806378 176.187035,95.0520153 183.939665,96.8476426 C191.692295,98.64327 197.269979,99.3425456 197.620777,108.257431 C197.971575,117.172317 205.387439,126.438597 201.690031,136.780146 C199.469481,142.985778 200.048297,146.23618 200.865656,147.842054 C200.799005,148.052891 200.735861,148.260213 200.665701,148.474564 C199.823787,151.036232 198.77841,153.608442 197.620777,155.151065 C197.354171,155.50246 197.09458,155.881966 196.845514,156.275528 C193.835669,158.229283 190.692521,160.414959 189.478761,161.746745 C186.889874,164.600071 187.998395,176.006346 189.478761,180.641243 C190.959128,185.27614 200.202648,213.440432 200.202648,213.440432 L200.553446,213.440432 L200.665701,214.143222 L201.037547,216.476483 C200.916398,216.410907 200.799257,216.338156 200.686749,216.258618 C200.541425,216.156863 200.358606,216.124721 200.187376,216.170822 C200.016145,216.216923 199.874047,216.336543 199.799231,216.497567 L197.992623,220.538607 C197.992623,220.538607 190.597806,217.3374 190.218945,224.825623 C190.218945,225.124309 190.218945,225.408938 190.218945,225.683026 C190.201405,229.664329 192.390383,231.147215 194.267151,231.681335 C195.990848,232.144614 197.621545,232.903097 199.087112,233.923234 C200.865656,235.202311 203.573815,236.5095 206.653819,235.799682 C207.276361,235.660322 207.914139,235.601277 208.551635,235.623985 C209.881158,235.662638 212.129772,235.27259 212.059612,232.29979 C212.073903,232.065745 212.073903,231.831045 212.059612,231.597 C212.059612,231.597 210.498562,225.577608 210.431911,222.812131 C210.42432,222.53083 210.474467,222.250964 210.579246,221.989867 C210.842344,221.483859 210.930043,220.528065 210.905488,219.505506 C210.905667,218.612375 210.860003,217.719825 210.768676,216.831392 C210.747002,216.659932 210.621431,216.519921 210.453554,216.480031 C210.285677,216.440141 210.110706,216.50874 210.014461,216.65218 L209.954826,216.733001 C209.716283,215.942363 209.439153,215.018195 209.179563,214.146735 L208.965576,213.443946 L209.463709,213.443946 C209.463709,213.443946 206.499468,195.940972 207.607989,194.535393 C208.33414,193.604196 207.162476,182.461468 206.264433,174.857285 C215.272919,175.430058 229.631071,173.834726 239.453408,173.342773 C241.330526,173.251623 243.163367,172.7401 244.817105,171.845831 C243.929587,179.056452 242.280838,193.467152 243.10872,194.531879 C244.217241,195.958541 241.260016,213.426376 241.260016,213.426376 L241.705529,213.426376 L241.544163,213.960496 L241.60029,213.960496 C241.326668,214.884664 241.02849,215.879112 240.772407,216.725973 L240.712772,216.645152 C240.616527,216.501712 240.441556,216.433114 240.273679,216.473003 C240.105802,216.512893 239.980232,216.652904 239.958557,216.824364 C239.86723,217.712797 239.821566,218.605347 239.821746,219.498478 C239.821746,220.521037 239.888397,221.476831 240.147987,221.982839 C240.252863,222.243908 240.303014,222.523795 240.295323,222.805103 C240.228671,225.58815 238.667621,231.589973 238.667621,231.589973 C238.653339,231.824017 238.653339,232.058717 238.667621,232.292762 C238.593953,235.279618 240.842567,235.659124 242.175598,235.616957 C242.813094,235.594249 243.450872,235.653294 244.073414,235.792654 C247.153418,236.495444 249.861577,235.191769 251.640122,233.916206 C253.105688,232.896069 254.736385,232.137586 256.460083,231.674307 C258.336851,231.140187 260.525828,229.657301 260.508289,225.675998 C260.508289,225.40191 260.508289,225.117281 260.508289,224.818595 C260.118903,217.3374 252.724087,220.538607 252.724087,220.538607 L250.906954,216.483511 C250.832139,216.322487 250.69004,216.202867 250.51881,216.156766 C250.347579,216.110665 250.16476,216.142807 250.019436,216.244562 C249.906933,216.324107 249.789792,216.396858 249.668638,216.462427 L250.156247,213.415834 L250.507045,213.415834 C250.507045,213.415834 259.750565,185.251542 261.230932,180.616645 C262.711298,175.981748 263.819819,164.571959 261.230932,161.722148 C260.006648,160.372792 256.803864,158.151977 253.762448,156.180652 C256.362483,157.744068 258.857334,159.47665 261.230932,161.367239 L265.945654,150.199913 Z M249.97734,153.773598 L248.802168,153.070808 C248.557957,152.648303 248.259583,152.259638 247.91465,151.914719 C247.588655,151.597509 247.286168,151.256925 247.009591,150.895674 C246.286948,148.706485 243.617377,139.651041 247.177974,134.981005 C249.763354,131.579503 249.9598,125.008421 249.756338,120.672209 C251.510326,129.284895 253.965911,141.404501 254.204453,143.892376 C254.495615,146.998706 251.317388,151.886608 249.97734,153.773598 Z" id="Shape" fill="url(#linearGradient-2)" fill-rule="nonzero"></path>
                    <path d="M249,210.64 L247.571429,220 L239,218.2 C239,218.2 240.785714,212.08 241.142857,210.64 C241.5,209.2 241.5,210.64 241.5,210.64 L249,210.64 Z" id="Shape" fill="#D6E6F9" fill-rule="nonzero"></path>
                    <path d="M211,218.2 L202.428571,220 L201.439286,213.52 L201,210.64 L208.5,210.64 C208.5,210.64 208.5,209.2 208.857143,210.64 C208.985714,211.1584 209.3,212.2888 209.653571,213.52 C210.285714,215.7016 211,218.2 211,218.2 Z" id="Shape" fill="#D6E6F9" fill-rule="nonzero"></path>
                    <path d="M210,213 L201.456872,213 L201,210.545455 L208.800248,210.545455 C208.800248,210.545455 208.800248,209.318182 209.171688,210.545455 C209.305407,210.987273 209.632274,211.950682 210,213 Z" id="Shape" fill="#000000" fill-rule="nonzero" opacity="0.1"></path>
                    <path d="M240,213 L248.543128,213 L249,210.545455 L241.192324,210.545455 C241.192324,210.545455 241.192324,209.318182 240.820883,210.545455 C240.694593,210.987273 240.367726,211.950682 240,213 Z" id="Shape" fill="#000000" fill-rule="nonzero" opacity="0.1"></path>
                    <path d="M256.490562,100 C256.490562,100 261.036472,100.354286 262.085528,117.005714 C262.454012,123.254029 263.249706,129.468936 264.466885,135.605714 C265.50593,140.730554 265.019095,146.0526 263.068144,150.896686 L258.588674,162 C258.588674,162 250.196225,154.914286 247.398742,155.268571 C247.398742,155.268571 252.294337,148.537143 251.944652,144.64 C251.594966,140.742857 246,112.754286 246,112.754286 L256.490562,100 Z" id="Shape" fill="#D6E6F9" fill-rule="nonzero"></path>
                    <path d="M203.50163,153 C203.50163,153 192.848538,159.738372 190.443001,162.575581 C188.037465,165.412791 189.068409,176.761628 190.443001,181.372093 C191.817594,185.982558 200.408797,214 200.408797,214 L209,214 C209,214 206.250815,196.622093 207.281759,195.203488 C208.312704,193.784884 205.219871,168.604651 205.219871,168.604651 L203.50163,153 Z" id="Shape" fill="#5F546F" fill-rule="nonzero"></path>
                    <path d="M245.49837,153 C245.49837,153 256.151462,159.738372 258.556999,162.575581 C260.962535,165.412791 259.931591,176.761628 258.556999,181.372093 C257.182406,185.982558 248.591203,214 248.591203,214 L240,214 C240,214 242.749185,196.622093 241.718241,195.203488 C240.687296,193.784884 243.780129,168.604651 243.780129,168.604651 L245.49837,153 Z" id="Shape" fill="#5F546F" fill-rule="nonzero"></path>
                    <path d="M203.50163,153 C203.50163,153 192.848538,159.738372 190.443001,162.575581 C188.037465,165.412791 189.068409,176.761628 190.443001,181.372093 C191.817594,185.982558 200.408797,214 200.408797,214 L209,214 C209,214 206.250815,196.622093 207.281759,195.203488 C208.312704,193.784884 205.219871,168.604651 205.219871,168.604651 L203.50163,153 Z" id="Shape" fill="#000000" fill-rule="nonzero" opacity="0.1"></path>
                    <path d="M245.49837,153 C245.49837,153 256.151462,159.738372 258.556999,162.575581 C260.962535,165.412791 259.931591,176.761628 258.556999,181.372093 C257.182406,185.982558 248.591203,214 248.591203,214 L240,214 C240,214 242.749185,196.622093 241.718241,195.203488 C240.687296,193.784884 243.780129,168.604651 243.780129,168.604651 L245.49837,153 Z" id="Shape" fill="#000000" fill-rule="nonzero" opacity="0.1"></path>
                    <path d="M222.491381,63.5312958 C222.491381,63.5312958 222.491381,77.4138711 217.588968,84.5331404 C212.686555,91.6524098 240,85.6010308 240,85.6010308 C238.756409,84.6701972 237.836574,83.3611306 237.373707,81.8634144 C235.930997,76.6414303 235.384728,67.4433343 237.548793,63.5312958 C240.700345,57.8358803 222.491381,63.5312958 222.491381,63.5312958 Z" id="Shape" fill="#FFCED8" fill-rule="nonzero"></path>
                    <circle id="Oval" fill="#000000" fill-rule="nonzero" opacity="0.1" cx="230.5" cy="61.5" r="11.5"></circle>
                    <circle id="Oval" fill="#FFCED8" fill-rule="nonzero" cx="230.5" cy="60.5" r="11.5"></circle>
                    <path d="M238.690459,180.715429 C226.187063,181.269731 205.38885,183.606222 202.23591,180.140077 C197.149961,174.551444 198.953638,169.520622 201.578757,166.457925 C202.606433,165.254597 203.529245,163.240865 204.277281,161.230641 C204.528957,160.550042 204.763156,159.872951 204.976381,159.227434 C205.783841,156.726056 208.471879,155 211.512962,155 L236.760944,155 C239.819505,155 242.511039,156.754122 243.304517,159.2555 C243.658852,160.429522 244.201987,161.53753 244.912446,162.535708 C245.284609,163.053824 245.717683,163.524992 246.202284,163.939006 C247.474646,165.023053 248.299583,167.359544 248.834394,169.931087 C249.96344,175.375881 245.181599,180.427753 238.690459,180.715429 Z" id="Shape" fill="#5F546F" fill-rule="nonzero"></path>
                    <path d="M238.690459,180.715429 C226.187063,181.269731 205.38885,183.606222 202.23591,180.140077 C197.149961,174.551444 198.953638,169.520622 201.578757,166.457925 C202.606433,165.254597 203.529245,163.240865 204.277281,161.230641 C204.528957,160.550042 204.763156,159.872951 204.976381,159.227434 C205.783841,156.726056 208.471879,155 211.512962,155 L236.760944,155 C239.819505,155 242.511039,156.754122 243.304517,159.2555 C243.658852,160.429522 244.201987,161.53753 244.912446,162.535708 C245.284609,163.053824 245.717683,163.524992 246.202284,163.939006 C247.474646,165.023053 248.299583,167.359544 248.834394,169.931087 C249.96344,175.375881 245.181599,180.427753 238.690459,180.715429 Z" id="Shape" fill="#000000" fill-rule="nonzero" opacity="0.1"></path>
                    <path d="M206.202647,217.786278 C205.091066,217.567488 202.189589,216.942372 201.063801,216.105411 C200.924313,216.00634 200.746185,215.97501 200.580137,216.02034 C200.414089,216.06567 200.278313,216.182695 200.21147,216.338093 L198.471294,220.300632 C198.471294,220.300632 191.368536,217.175054 191.013398,224.468071 C190.807418,228.72233 193.016376,230.257337 194.895055,230.799104 C196.561875,231.250547 198.133486,231.987818 199.536708,232.97659 C201.244922,234.219876 203.848083,235.494417 206.80283,234.80679 C207.399584,234.670332 208.01222,234.611941 208.624688,234.633147 C209.949353,234.674821 212.23289,234.28586 211.980742,231.059568 C211.980742,231.059568 209.849914,222.724692 210.56019,221.335546 C211.007664,220.460384 210.890468,218.209968 210.744862,216.66107 C210.724313,216.504247 210.607925,216.375595 210.45126,216.336528 C210.294594,216.297462 210.129419,216.355903 210.034586,216.483954 C209.435437,217.385904 208.395558,217.913473 207.296472,217.8731 C206.929705,217.883718 206.562862,217.8546 206.202647,217.786278 Z" id="Shape" fill="#000000" fill-rule="nonzero" opacity="0.1"></path>
                    <path d="M206.202647,217.786278 C205.091066,217.567488 202.189589,216.942372 201.063801,216.105411 C200.924313,216.00634 200.746185,215.97501 200.580137,216.02034 C200.414089,216.06567 200.278313,216.182695 200.21147,216.338093 L198.471294,220.300632 C198.471294,220.300632 191.368536,217.175054 191.013398,224.468071 C190.807418,228.72233 193.016376,230.257337 194.895055,230.799104 C196.561875,231.250547 198.133486,231.987818 199.536708,232.97659 C201.244922,234.219876 203.848083,235.494417 206.80283,234.80679 C207.399584,234.670332 208.01222,234.611941 208.624688,234.633147 C209.949353,234.674821 212.23289,234.28586 211.980742,231.059568 C211.980742,231.059568 209.849914,222.724692 210.56019,221.335546 C211.007664,220.460384 210.890468,218.209968 210.744862,216.66107 C210.724313,216.504247 210.607925,216.375595 210.45126,216.336528 C210.294594,216.297462 210.129419,216.355903 210.034586,216.483954 C209.435437,217.385904 208.395558,217.913473 207.296472,217.8731 C206.929705,217.883718 206.562862,217.8546 206.202647,217.786278 Z" id="Shape" fill="#BC8387" fill-rule="nonzero"></path>
                    <path d="M242.790001,217.785625 C243.9029,217.566915 246.807816,216.942028 247.934938,216.105373 C248.074591,216.006338 248.25293,215.975019 248.419175,216.020332 C248.585421,216.065646 248.721357,216.182628 248.788279,216.33797 L250.519851,220.299061 C250.519851,220.299061 257.631028,217.174624 257.986586,224.464976 C258.192811,228.717681 255.981234,230.252127 254.100328,230.793696 C252.439755,231.24977 250.874894,231.989036 249.478063,232.977329 C247.767825,234.220161 245.161579,235.494236 242.203329,234.80686 C241.605868,234.670453 240.992506,234.612083 240.379312,234.633281 C239.053078,234.67494 236.766834,234.286121 237.019281,231.061008 C237.019281,231.061008 239.152634,222.729178 238.441517,221.34054 C237.993512,220.465697 238.110847,218.216103 238.256626,216.667771 C238.277199,216.511006 238.393724,216.3824 238.550576,216.343348 C238.707427,216.304296 238.872798,216.362716 238.967744,216.49072 C239.567603,217.392341 240.608714,217.919717 241.709102,217.879358 C242.071824,217.886667 242.434277,217.855235 242.790001,217.785625 Z" id="Shape" fill="#000000" fill-rule="nonzero" opacity="0.1"></path>
                    <path d="M242.790001,217.785625 C243.9029,217.566915 246.807816,216.942028 247.934938,216.105373 C248.074591,216.006338 248.25293,215.975019 248.419175,216.020332 C248.585421,216.065646 248.721357,216.182628 248.788279,216.33797 L250.519851,220.299061 C250.519851,220.299061 257.631028,217.174624 257.986586,224.464976 C258.192811,228.717681 255.981234,230.252127 254.100328,230.793696 C252.439755,231.24977 250.874894,231.989036 249.478063,232.977329 C247.767825,234.220161 245.161579,235.494236 242.203329,234.80686 C241.605868,234.670453 240.992506,234.612083 240.379312,234.633281 C239.053078,234.67494 236.766834,234.286121 237.019281,231.061008 C237.019281,231.061008 239.152634,222.729178 238.441517,221.34054 C237.993512,220.465697 238.110847,218.216103 238.256626,216.667771 C238.277199,216.511006 238.393724,216.3824 238.550576,216.343348 C238.707427,216.304296 238.872798,216.362716 238.967744,216.49072 C239.567603,217.392341 240.608714,217.919717 241.709102,217.879358 C242.071824,217.886667 242.434277,217.855235 242.790001,217.785625 Z" id="Shape" fill="#BC8387" fill-rule="nonzero"></path>
                    <path d="M179.440203,72.7562328 C179.440203,72.7562328 182.487987,62.5231296 174.360563,61.1116671 C166.233139,59.7002046 168.264995,72.0505015 174.360563,76.6377547 C180.456131,81.2250079 179.440203,72.7562328 179.440203,72.7562328 Z" id="Shape" fill="#FFCED8" fill-rule="nonzero"></path>
                    <path d="M245,152.486383 C235.204341,168.258702 202.318915,150.429124 202.318915,150.429124 C202.318915,150.429124 201.538761,150.010815 201,148.646166 C201.269381,147.812976 201.517771,146.979786 201.741671,146.187742 C202.609788,143.116253 205.465661,140.992447 208.71758,141.00002 L235.655641,141.00002 C238.918701,140.993105 241.779772,143.134838 242.63155,146.222029 C242.999085,147.638745 243.576644,148.994968 244.34579,150.247399 C244.692136,151.629192 245,152.486383 245,152.486383 Z" id="Shape" fill="#000000" fill-rule="nonzero" opacity="0.1"></path>
                    <path d="M223.193081,74.2131565 L221.090106,74.2131565 C221.090106,74.2131565 219.688122,80.5235425 215.131676,80.5235425 C213.915455,80.5235425 212.254105,80.4499213 210.466576,80.3377367 C205.094856,80.0560043 199.714689,80.6999238 194.561073,82.2413698 C192.784059,82.756718 190.831797,82.802293 189.194981,81.5752735 C184.98903,78.4200805 180.432584,70.0062325 180.432584,70.0062325 C180.432584,70.0062325 172.371178,69.6556555 172.020683,74.2131565 C171.670187,78.7706575 175.876137,87.1845055 176.927625,88.2362365 C177.979113,89.2879675 177.979113,95.9489305 185.339526,97.7018155 C192.69994,99.4547005 197.957378,100.155854 198.307874,108.920279 C198.65837,117.684705 205.668287,126.799707 202.163328,136.96644 C198.65837,147.133173 202.513824,149.236635 202.513824,149.236635 C202.513824,149.236635 235.460437,167.466639 245.274322,151.340097 C245.274322,151.340097 241.418867,140.47221 245.274322,135.213555 C249.129777,129.9549 247.377297,116.983551 247.377297,116.983551 L259.995149,104.362778 C259.995149,104.362778 260.345645,96.2995075 255.088207,92.0925835 C249.830768,87.8856595 237.563412,81.2246965 237.563412,81.2246965 L238.790148,76.0151223 L223.193081,74.2131565 Z" id="Shape" fill="#D6E6F9" fill-rule="nonzero"></path>
                    <path d="M223.830908,63.9762766 C223.560113,67.2516607 223.667006,70.9899843 226.146915,73.2141824 C227.365491,74.3071373 228.997385,74.8536148 230.597211,75.2330163 C232.281964,75.6325466 234.000592,75.8807133 235.73162,75.9744157 C237.313631,76.0579537 238.998972,75.9744157 240.328003,75.1494784 C243.050202,73.4334695 242.986067,69.6185695 244.076371,66.6355683 C244.845998,64.5262349 246.292612,62.726688 247.325907,60.7182963 C249.207218,57.0843952 249.64904,52.6185953 247.896001,48.9220407 C246.142962,45.2254861 241.999091,42.5731559 237.858784,43.0569799 C236.514237,43.2631247 235.198888,43.6217435 233.939387,44.1255696 C230.939267,45.1976401 228.57694,42.1659084 225.576821,43.2379789 C223.9378,43.8227446 217.424476,44.466683 217.02541,46.3706522 C216.55152,48.6331386 222.854622,54.2754314 223.535171,56.2559771 C224.429506,58.8073656 223.830908,61.3657155 223.830908,63.9762766 Z" id="Shape" fill="#000000" fill-rule="nonzero" opacity="0.1"></path>
                    <path d="M223.830908,63.9762766 C223.560113,67.2516607 223.667006,70.9899843 226.146915,73.2141824 C227.365491,74.3071373 228.997385,74.8536148 230.597211,75.2330163 C232.281964,75.6325466 234.000592,75.8807133 235.73162,75.9744157 C237.313631,76.0579537 238.998972,75.9744157 240.328003,75.1494784 C243.050202,73.4334695 242.986067,69.6185695 244.076371,66.6355683 C244.845998,64.5262349 246.292612,62.726688 247.325907,60.7182963 C249.207218,57.0843952 249.64904,52.6185953 247.896001,48.9220407 C246.142962,45.2254861 241.999091,42.5731559 237.858784,43.0569799 C236.514237,43.2631247 235.198888,43.6217435 233.939387,44.1255696 C230.939267,45.1976401 228.57694,42.1659084 225.576821,43.2379789 C223.9378,43.8227446 217.424476,44.466683 217.02541,46.3706522 C216.55152,48.6331386 222.854622,54.2754314 223.535171,56.2559771 C224.429506,58.8073656 223.830908,61.3657155 223.830908,63.9762766 Z" id="Shape" fill="#333333" fill-rule="nonzero"></path>
                    <path d="M219,79 C219,79 221.150943,79.7737185 227.245283,81.3149903 C233.339623,82.8562621 238,81.3149903 238,81.3149903" id="Shape" fill="#000000" fill-rule="nonzero" opacity="0.1"></path>
                    <path d="M203,129 C203,129 212.837838,129.571429 216,133.857143 C219.162162,138.142857 220.216216,139.571429 224.081081,139.571429 C227.945946,139.571429 240.243243,140.285714 242,141" id="Shape" fill="#000000" fill-rule="nonzero" opacity="0.1"></path>
                    <rect id="Rectangle-path" fill="#C0BCCF" fill-rule="nonzero" x="224" y="236" width="6" height="7"></rect>
                    <rect id="Rectangle-path" fill="#CB919B" fill-rule="nonzero" x="261" y="153" width="5" height="34"></rect>
                    <rect id="Rectangle-path" fill="#CB919B" fill-rule="nonzero" x="253" y="187" width="10" height="1"></rect>
                    <rect id="Rectangle-path" fill="#CB919B" fill-rule="nonzero" x="189" y="153" width="5" height="34"></rect>
                    <rect id="Rectangle-path" fill="#CB919B" fill-rule="nonzero" x="189" y="187" width="10" height="1"></rect>
                    <rect id="Rectangle-path" fill="#C0BCCF" fill-rule="nonzero" x="223" y="189" width="10" height="41"></rect>
                    <path d="M228,173.941473 C254.138148,174.851176 255,164.855019 255,164.855019 L253.311617,137.13728 C252.891287,93.9686911 228,100.329561 228,100.329561 C228,100.329561 203.108713,93.982795 202.688383,137.13728 L201,164.855019 C201,164.855019 201.844192,174.851176 228,173.941473 Z" id="Shape" fill="#CB919B" fill-rule="nonzero"></path>
                    <path d="M228,173.941473 C254.138148,174.851176 255,164.855019 255,164.855019 L253.311617,137.13728 C252.891287,93.9686911 228,100.329561 228,100.329561 C228,100.329561 203.108713,93.982795 202.688383,137.13728 L201,164.855019 C201,164.855019 201.844192,174.851176 228,173.941473 Z" id="Shape" fill="#FFFFFF" fill-rule="nonzero" opacity="0.1"></path>
                    <path d="M226.5,171.944615 C251.205422,172.805443 252,163.346829 252,163.346829 L250.407344,137.126558 C250.008305,96.2932008 226.5,102.312001 226.5,102.312001 C226.5,102.312001 202.991695,96.2932008 202.592656,137.126558 L201,163.346829 C201,163.346829 201.794578,172.805443 226.5,171.944615 Z" id="Shape" fill="#CB919B" fill-rule="nonzero"></path>
                    <rect id="Rectangle-path" fill="#C0BCCF" fill-rule="nonzero" x="222" y="161" width="10" height="18" rx="1.25"></rect>
                    <polygon id="Shape" fill="#000000" fill-rule="nonzero" opacity="0.1" points="233 228.24 233 229.908 223 229.908 223 228.252 223.871309 228 232.143274 228"></polygon>
                    <path d="M188.129665,243 C188.129665,243 183.918077,239.60746 223.499961,229 L231.496693,229 C231.496693,229 265.580603,237.476021 266,243 L260.949618,243 C260.949618,243 242.429201,237.476021 234.009548,237.476021 C225.589896,237.476021 200.334461,238.325044 192.774748,242.992895 L188.129665,243 Z" id="Shape" fill="#C0BCCF" fill-rule="nonzero"></path>
                    <path d="M189.605475,148 L191.394525,148 C193.938059,148 196,150.131977 196,152.761905 L196,155 L185,155 L185,152.761905 C185,150.131977 187.061941,148 189.605475,148 Z" id="Shape" fill="#CB919B" fill-rule="nonzero"></path>
                    <path d="M261.605475,148 L263.394525,148 C265.938059,148 268,150.131977 268,152.761905 L268,155 L257,155 L257,152.761905 C257,150.131977 259.061941,148 261.605475,148 Z" id="Shape" fill="#CB919B" fill-rule="nonzero"></path>
                    <circle id="Oval" fill="#5A5773" fill-rule="nonzero" cx="190" cy="246" r="3"></circle>
                    <circle id="Oval" fill="#5A5773" fill-rule="nonzero" cx="227" cy="246" r="3"></circle>
                    <circle id="Oval" fill="#5A5773" fill-rule="nonzero" cx="264" cy="246" r="3"></circle>
                    <rect id="Rectangle-path" fill="#000000" fill-rule="nonzero" opacity="0.1" x="223" y="189" width="10" height="1.912"></rect>
                    <path d="M227.49873,190 L255.669408,190 L257.782208,185.715311 C259.042846,178.430622 254.419334,178 254.419334,178 L200.581648,178 C200.581648,178 195.954615,178.427033 197.218774,185.715311 L199.331575,190 L227.49873,190 Z" id="Shape" fill="#CB919B" fill-rule="nonzero"></path>
                    <path d="M227.49873,190 L255.669408,190 L257.782208,185.715311 C259.042846,178.430622 254.419334,178 254.419334,178 L200.581648,178 C200.581648,178 195.954615,178.427033 197.218774,185.715311 L199.331575,190 L227.49873,190 Z" id="Shape" fill="#FFFFFF" fill-rule="nonzero" opacity="0.1"></path>
                    <path d="M227.49873,190 L255.669408,190 L257.782208,186.428322 C259.042846,180.359261 254.419334,180 254.419334,180 L200.581648,180 C200.581648,180 195.954615,180.348797 197.218774,186.428322 L199.331575,190 L227.49873,190 Z" id="Shape" fill="#CB919B" fill-rule="nonzero"></path>
                    <path d="M284.545142,106.326165 C284.545142,106.326165 281.222804,105.246851 279.625316,108.072629 C278.767643,109.620918 278.793722,111.482543 279.694455,113.008136 C280.746105,114.831444 282.907626,117.199649 287.008694,116.986581 C290.487506,116.808442 291.641046,114.262097 291.957632,111.890399 C292.192894,110.086856 291.437535,108.295127 289.961781,107.156196 C288.486027,106.017265 286.500749,105.693874 284.716172,106.301715 L284.545142,106.326165 Z" id="Shape" fill="#4285F4" fill-rule="nonzero"></path>
                    <path d="M280.353057,113.768511 C279.480512,112.164641 279.455249,110.207497 280.286081,108.579767 C281.833577,105.642049 285.051946,106.743693 285.051946,106.743693 L285.217624,106.681267 C286.444873,106.218394 287.793845,106.249826 289,106.769399 C287.651496,105.93215 286.01362,105.769075 284.537289,106.325069 L284.371612,106.387495 C284.371612,106.387495 281.153243,105.252802 279.605747,108.223569 C278.774915,109.851299 278.800177,111.808443 279.672723,113.412312 C280.468769,114.99493 281.747238,116.256993 283.307048,117 C282.057988,116.223534 281.036495,115.106081 280.353057,113.768511 Z" id="Shape" fill="#FFFFFF" fill-rule="nonzero" opacity="0.1"></path>
                    <path d="M282,107 C282,107 283.164513,107.266 286,107" id="Shape" fill="#000000" fill-rule="nonzero" opacity="0.2"></path>
                    <path d="M282,101 C282,101 283.755802,106.549168 283.610494,108 L285,107.83056 C285,107.83056 282.656912,102.966213 283.244198,101.00353 L282,101 Z" id="Shape" fill="#4285F4" fill-rule="nonzero"></path>
                    <path d="M282,101 C282,101 283.755802,106.549168 283.610494,108 L285,107.83056 C285,107.83056 282.656912,102.966213 283.244198,101.00353 L282,101 Z" id="Shape" fill="#000000" fill-rule="nonzero" opacity="0.2"></path>
                    <path d="M290,100.761945 C290,100.761945 286.944785,99.2400742 285.576129,100.49798 C284.207474,101.755887 284,104.969087 284,104.969087 C284,104.969087 288.982711,105.637146 290,100.761945 Z" id="Shape" fill="#4285F4" fill-rule="nonzero"></path>
                    <path d="M290,100.761945 C290,100.761945 286.944785,99.2400742 285.576129,100.49798 C284.207474,101.755887 284,104.969087 284,104.969087 C284,104.969087 288.982711,105.637146 290,100.761945 Z" id="Shape" fill="#FFFFFF" fill-rule="nonzero" opacity="0.1"></path>
                    <path d="M284,106 C284,106 284.803123,101.565453 290,101" id="Shape" stroke="#4285F4" stroke-width="0.5"></path>
                </g>
            </g>
        </g>
    </g>
</svg>