<?xml version="1.0" encoding="UTF-8"?>
<svg width="41px" height="42px" viewBox="0 0 41 42" version="1.1" xmlns="http://www.w3.org/2000/svg" xmlns:xlink="http://www.w3.org/1999/xlink">
    <!-- Generator: Sketch 51 (57462) - http://www.bohemiancoding.com/sketch -->
    <title>NewLogoWhite</title>
    <desc>Created with Sketch.</desc>
    <defs></defs>
    <g id="Page-1" stroke="none" stroke-width="1" fill="none" fill-rule="evenodd">
        <g id="NewLogoWhite" fill="#FFFFFF" fill-rule="nonzero">
            <g id="Logo">
                <path d="M29.5634118,17.2752483 C30.3380138,17.6070201 31.0754464,17.9730403 31.7772699,18.3714765 L36.8103391,5.72778523 L36.9282318,5.72778523 L36.9282318,22.6298255 C38.359827,24.3326577 39.4732111,26.2702953 40.2666817,28.4441477 C40.5284291,29.1613893 40.7517301,29.8925839 40.9394221,30.636604 L40.9394221,0.0432684564 L35.0406713,0.0432684564 L28.4023599,16.8250872 C28.7973218,16.9640537 29.1849066,17.1130268 29.5634118,17.2752483 Z" id="Shape"></path>
                <path d="M18.6419481,41.8852752 L22.4172111,41.8852752 L30.0222145,22.7807718 C29.213564,22.1502081 28.3246159,21.5940604 27.3536678,21.1134564 C27.1742042,21.0246644 26.9910519,20.9412282 26.8063391,20.8606107 L20.5296505,36.7284362 L14.2244464,20.8532819 C14.033917,20.9361544 13.8452318,21.0219866 13.6603772,21.1134564 C12.6936851,21.5919463 11.8084256,22.145557 11.0026125,22.7727383 L18.6419481,41.8852752 Z" id="Shape"></path>
                <path d="M0.747079585,28.4441477 C1.53785467,26.2773423 2.64669896,24.3453423 4.0716263,22.6465973 L4.0716263,5.7276443 L4.1896609,5.7276443 L9.24216609,18.3682349 C9.94242907,17.9710671 10.6777336,17.6060336 11.4503495,17.2752483 C11.8326851,17.1114765 12.2242422,16.961094 12.6230346,16.8212819 L5.95932872,0.0432684564 L0.0604359862,0.0432684564 L0.0604359862,30.6914295 C0.250823529,29.9285235 0.478948097,29.1791477 0.747079585,28.4441477 Z" id="Shape"></path>
            </g>
        </g>
    </g>
</svg>